<svg width="138" height="40" viewBox="0 0 138 40" fill="none" xmlns="http://www.w3.org/2000/svg">
<path d="M34.1422 5.85781C30.3647 2.08031 25.3422 0 20 0C14.6578 0 9.63531 2.08031 5.85781 5.85781C2.08031 9.63531 0 14.6578 0 20C0 25.3422 2.08039 30.3646 5.85781 34.1422C9.63523 37.9198 14.6578 40 20 40C25.3422 40 30.3647 37.9197 34.1422 34.1422C37.9197 30.3647 40 25.3422 40 20C40 14.6578 37.9196 9.63539 34.1422 5.85781Z" fill="#33CC95"/>
<path d="M20.5713 8V33.1429" stroke="white" stroke-width="2" stroke-linecap="round" stroke-linejoin="round"/>
<path d="M26.2853 12.5714H17.7139C16.653 12.5714 15.6356 12.9929 14.8855 13.743C14.1353 14.4931 13.7139 15.5106 13.7139 16.5714C13.7139 17.6323 14.1353 18.6497 14.8855 19.3999C15.6356 20.15 16.653 20.5714 17.7139 20.5714H23.4282C24.489 20.5714 25.5065 20.9929 26.2566 21.743C27.0068 22.4932 27.4282 23.5106 27.4282 24.5714C27.4282 25.6323 27.0068 26.6497 26.2566 27.3999C25.5065 28.15 24.489 28.5714 23.4282 28.5714H13.7139" stroke="white" stroke-width="2" stroke-linecap="round" stroke-linejoin="round"/>
<path d="M51.5 28.15C51.0167 28.15 50.625 28 50.325 27.7C50.0417 27.4 49.9 27.0083 49.9 26.525V11.9C49.9 11.4167 50.0333 11.0417 50.3 10.775C50.5833 10.5083 50.9667 10.375 51.45 10.375H60.225C61.2417 10.375 61.75 10.8083 61.75 11.675C61.75 12.525 61.2417 12.95 60.225 12.95H53.075V17.75H59.725C60.7417 17.75 61.25 18.1833 61.25 19.05C61.25 19.9 60.7417 20.325 59.725 20.325H53.075V26.525C53.075 27.0083 52.9333 27.4 52.65 27.7C52.3667 28 51.9833 28.15 51.5 28.15ZM66.3361 28.15C65.8861 28.15 65.5111 28.025 65.2111 27.775C64.9278 27.5083 64.7861 27.1333 64.7861 26.65V17C64.7861 16.5167 64.9278 16.15 65.2111 15.9C65.5111 15.65 65.8861 15.525 66.3361 15.525C66.7861 15.525 67.1611 15.65 67.4611 15.9C67.7611 16.15 67.9111 16.5167 67.9111 17V26.65C67.9111 27.1333 67.7611 27.5083 67.4611 27.775C67.1611 28.025 66.7861 28.15 66.3361 28.15ZM66.3361 13.3C65.7695 13.3 65.3195 13.15 64.9861 12.85C64.6528 12.5333 64.4861 12.125 64.4861 11.625C64.4861 11.125 64.6528 10.725 64.9861 10.425C65.3195 10.125 65.7695 9.975 66.3361 9.975C66.8861 9.975 67.3278 10.125 67.6611 10.425C68.0111 10.725 68.1861 11.125 68.1861 11.625C68.1861 12.125 68.0195 12.5333 67.6861 12.85C67.3528 13.15 66.9028 13.3 66.3361 13.3ZM78.2338 15.475C79.7005 15.475 80.7921 15.8917 81.5088 16.725C82.2255 17.5583 82.5838 18.8167 82.5838 20.5V26.65C82.5838 27.1167 82.4421 27.4833 82.1588 27.75C81.8921 28.0167 81.5171 28.15 81.0338 28.15C80.5505 28.15 80.1671 28.0167 79.8838 27.75C79.6005 27.4833 79.4588 27.1167 79.4588 26.65V20.675C79.4588 19.725 79.2755 19.0333 78.9088 18.6C78.5588 18.1667 78.0005 17.95 77.2338 17.95C76.3338 17.95 75.6088 18.2333 75.0588 18.8C74.5255 19.3667 74.2588 20.125 74.2588 21.075V26.65C74.2588 27.1167 74.1171 27.4833 73.8338 27.75C73.5505 28.0167 73.1671 28.15 72.6838 28.15C72.2005 28.15 71.8171 28.0167 71.5338 27.75C71.2671 27.4833 71.1338 27.1167 71.1338 26.65V16.975C71.1338 16.5417 71.2755 16.1917 71.5588 15.925C71.8421 15.6583 72.2255 15.525 72.7088 15.525C73.1421 15.525 73.4921 15.6583 73.7588 15.925C74.0421 16.175 74.1838 16.5083 74.1838 16.925V17.6C74.6005 16.9167 75.1588 16.3917 75.8588 16.025C76.5588 15.6583 77.3505 15.475 78.2338 15.475ZM91.0578 15.475C92.7578 15.475 94.0161 15.9 94.8328 16.75C95.6661 17.5833 96.0828 18.8583 96.0828 20.575V26.675C96.0828 27.125 95.9495 27.4833 95.6828 27.75C95.4161 28 95.0495 28.125 94.5828 28.125C94.1495 28.125 93.7911 27.9917 93.5078 27.725C93.2411 27.4583 93.1078 27.1083 93.1078 26.675V26.125C92.8245 26.775 92.3745 27.2833 91.7578 27.65C91.1578 28.0167 90.4578 28.2 89.6578 28.2C88.8411 28.2 88.0995 28.0333 87.4328 27.7C86.7661 27.3667 86.2411 26.9083 85.8578 26.325C85.4745 25.7417 85.2828 25.0917 85.2828 24.375C85.2828 23.475 85.5078 22.7667 85.9578 22.25C86.4245 21.7333 87.1745 21.3583 88.2078 21.125C89.2411 20.8917 90.6661 20.775 92.4828 20.775H93.1078V20.2C93.1078 19.3833 92.9328 18.7917 92.5828 18.425C92.2328 18.0417 91.6661 17.85 90.8828 17.85C90.3995 17.85 89.9078 17.925 89.4078 18.075C88.9078 18.2083 88.3161 18.4083 87.6328 18.675C87.1995 18.8917 86.8828 19 86.6828 19C86.3828 19 86.1328 18.8917 85.9328 18.675C85.7495 18.4583 85.6578 18.175 85.6578 17.825C85.6578 17.5417 85.7245 17.3 85.8578 17.1C86.0078 16.8833 86.2495 16.6833 86.5828 16.5C87.1661 16.1833 87.8578 15.9333 88.6578 15.75C89.4745 15.5667 90.2745 15.475 91.0578 15.475ZM90.2828 25.95C91.1161 25.95 91.7911 25.675 92.3078 25.125C92.8411 24.5583 93.1078 23.8333 93.1078 22.95V22.425H92.6578C91.5411 22.425 90.6745 22.475 90.0578 22.575C89.4411 22.675 88.9995 22.85 88.7328 23.1C88.4661 23.35 88.3328 23.6917 88.3328 24.125C88.3328 24.6583 88.5161 25.1 88.8828 25.45C89.2661 25.7833 89.7328 25.95 90.2828 25.95ZM106.359 15.475C107.825 15.475 108.917 15.8917 109.634 16.725C110.35 17.5583 110.709 18.8167 110.709 20.5V26.65C110.709 27.1167 110.567 27.4833 110.284 27.75C110.017 28.0167 109.642 28.15 109.159 28.15C108.675 28.15 108.292 28.0167 108.009 27.75C107.725 27.4833 107.584 27.1167 107.584 26.65V20.675C107.584 19.725 107.4 19.0333 107.034 18.6C106.684 18.1667 106.125 17.95 105.359 17.95C104.459 17.95 103.734 18.2333 103.184 18.8C102.65 19.3667 102.384 20.125 102.384 21.075V26.65C102.384 27.1167 102.242 27.4833 101.959 27.75C101.675 28.0167 101.292 28.15 100.809 28.15C100.325 28.15 99.9421 28.0167 99.6588 27.75C99.3921 27.4833 99.2588 27.1167 99.2588 26.65V16.975C99.2588 16.5417 99.4005 16.1917 99.6838 15.925C99.9671 15.6583 100.35 15.525 100.834 15.525C101.267 15.525 101.617 15.6583 101.884 15.925C102.167 16.175 102.309 16.5083 102.309 16.925V17.6C102.725 16.9167 103.284 16.3917 103.984 16.025C104.684 15.6583 105.475 15.475 106.359 15.475ZM119.308 28.2C118.091 28.2 117.016 27.9417 116.083 27.425C115.166 26.9083 114.458 26.175 113.958 25.225C113.458 24.275 113.208 23.1667 113.208 21.9C113.208 20.6333 113.466 19.5167 113.983 18.55C114.516 17.5667 115.258 16.8083 116.208 16.275C117.158 15.7417 118.249 15.475 119.483 15.475C120.133 15.475 120.783 15.5667 121.433 15.75C122.099 15.9333 122.683 16.1833 123.183 16.5C123.716 16.85 123.983 17.2917 123.983 17.825C123.983 18.1917 123.891 18.4917 123.708 18.725C123.541 18.9417 123.316 19.05 123.033 19.05C122.849 19.05 122.658 19.0083 122.458 18.925C122.258 18.8417 122.058 18.7417 121.858 18.625C121.491 18.4083 121.141 18.2417 120.808 18.125C120.474 17.9917 120.091 17.925 119.658 17.925C118.624 17.925 117.824 18.2667 117.258 18.95C116.708 19.6167 116.433 20.5833 116.433 21.85C116.433 23.1 116.708 24.0667 117.258 24.75C117.824 25.4167 118.624 25.75 119.658 25.75C120.074 25.75 120.441 25.6917 120.758 25.575C121.091 25.4417 121.458 25.2667 121.858 25.05C122.108 24.9 122.324 24.7917 122.508 24.725C122.691 24.6417 122.874 24.6 123.058 24.6C123.324 24.6 123.549 24.7167 123.733 24.95C123.916 25.1833 124.008 25.475 124.008 25.825C124.008 26.1083 123.941 26.3583 123.808 26.575C123.691 26.775 123.491 26.9583 123.208 27.125C122.691 27.4583 122.091 27.725 121.408 27.925C120.724 28.1083 120.024 28.2 119.308 28.2ZM135.765 24.65C136.048 24.65 136.273 24.7583 136.44 24.975C136.623 25.1917 136.715 25.4833 136.715 25.85C136.715 26.3667 136.407 26.8 135.79 27.15C135.223 27.4667 134.582 27.725 133.865 27.925C133.148 28.1083 132.465 28.2 131.815 28.2C129.848 28.2 128.29 27.6333 127.14 26.5C125.99 25.3667 125.415 23.8167 125.415 21.85C125.415 20.6 125.665 19.4917 126.165 18.525C126.665 17.5583 127.365 16.8083 128.265 16.275C129.182 15.7417 130.215 15.475 131.365 15.475C132.465 15.475 133.423 15.7167 134.24 16.2C135.057 16.6833 135.69 17.3667 136.14 18.25C136.59 19.1333 136.815 20.175 136.815 21.375C136.815 22.0917 136.498 22.45 135.865 22.45H128.49C128.59 23.6 128.915 24.45 129.465 25C130.015 25.5333 130.815 25.8 131.865 25.8C132.398 25.8 132.865 25.7333 133.265 25.6C133.682 25.4667 134.148 25.2833 134.665 25.05C135.165 24.7833 135.532 24.65 135.765 24.65ZM131.44 17.675C130.59 17.675 129.907 17.9417 129.39 18.475C128.89 19.0083 128.59 19.775 128.49 20.775H134.14C134.107 19.7583 133.857 18.9917 133.39 18.475C132.923 17.9417 132.273 17.675 131.44 17.675Z" fill="white"/>
</svg>
